<svg width="512" height="512" viewBox="0 0 512 512" fill="none" xmlns="http://www.w3.org/2000/svg">
    <path d="M0 8C0 3.58172 3.58172 0 8 0H504C508.418 0 512 3.58172 512 8V504C512 508.418 508.418 512 504 512H8C3.58172 512 0 508.418 0 504V8Z" fill="white"/>
    <svg xmlns="http://www.w3.org/2000/svg" viewBox="0 0 49 49" shape-rendering="crispEdges" height="512" width="512" x="0" y="0"><path stroke="#000000" d="M4 4.5h7m2 0h1m4 0h1m4 0h1m1 0h1m1 0h2m3 0h1m1 0h3m1 0h7M4 5.5h1m5 0h1m3 0h3m2 0h1m1 0h2m2 0h1m1 0h1m4 0h3m1 0h1m1 0h1m5 0h1M4 6.5h1m1 0h3m1 0h1m2 0h1m3 0h2m1 0h3m2 0h1m1 0h1m1 0h1m4 0h3m1 0h1m1 0h3m1 0h1M4 7.5h1m1 0h3m1 0h1m2 0h1m1 0h1m3 0h3m2 0h1m2 0h1m5 0h1m1 0h2m1 0h1m1 0h3m1 0h1M4 8.5h1m1 0h3m1 0h1m1 0h3m1 0h2m3 0h1m2 0h1m5 0h4m1 0h1m2 0h1m1 0h3m1 0h1M4 9.5h1m5 0h1m2 0h1m3 0h1m1 0h1m4 0h2m1 0h4m1 0h1m2 0h1m2 0h1m5 0h1M4 10.5h7m1 0h1m1 0h1m1 0h1m1 0h1m1 0h1m1 0h1m1 0h1m1 0h1m1 0h1m1 0h1m1 0h1m1 0h1m1 0h1m1 0h7M12 11.5h4m2 0h2m1 0h1m1 0h2m2 0h1m2 0h2m1 0h1M6 12.5h2m2 0h3m2 0h2m6 0h1m1 0h4m1 0h1m2 0h1m2 0h3m1 0h1M5 13.5h1m2 0h2m3 0h1m1 0h1m1 0h1m2 0h3m2 0h2m1 0h2m2 0h5m1 0h1m1 0h2m1 0h2M6 14.5h1m3 0h2m2 0h3m4 0h1m3 0h2m1 0h1m1 0h1m1 0h1m3 0h2m2 0h4M4 15.5h2m3 0h1m2 0h1m1 0h4m1 0h1m1 0h1m3 0h2m2 0h4m2 0h1m1 0h2m5 0h1M4 16.5h1m1 0h2m2 0h1m1 0h1m1 0h2m1 0h2m1 0h2m2 0h3m3 0h6m5 0h4M4 17.5h1m1 0h1m2 0h1m2 0h2m3 0h2m1 0h3m1 0h1m2 0h1m3 0h3m1 0h1m2 0h1m3 0h1m1 0h1M4 18.5h5m1 0h1m1 0h1m2 0h1m4 0h1m2 0h2m1 0h2m4 0h1m1 0h2m1 0h1m1 0h3m1 0h2M7 19.5h2m3 0h1m1 0h1m4 0h2m1 0h2m2 0h4m1 0h2m3 0h1m1 0h4m1 0h2M4 20.5h1m2 0h7m3 0h1m1 0h2m3 0h1m2 0h1m3 0h1m2 0h1m1 0h1m2 0h2M4 21.5h5m3 0h2m3 0h3m1 0h1m4 0h3m1 0h3m3 0h1m4 0h2m1 0h1M5 22.5h6m3 0h2m1 0h2m1 0h3m3 0h4m1 0h3m2 0h1m4 0h1M5 23.5h2m1 0h1m3 0h2m3 0h1m3 0h3m1 0h2m5 0h2m3 0h1m1 0h6M4 24.5h1m5 0h1m2 0h1m4 0h1m1 0h1m9 0h1m2 0h3m1 0h2m1 0h1m1 0h2M4 25.5h2m1 0h3m1 0h2m1 0h1m2 0h2m2 0h1m2 0h3m3 0h1m1 0h9m2 0h2M6 26.5h2m2 0h1m1 0h1m2 0h3m1 0h1m1 0h2m1 0h1m1 0h5m1 0h1m1 0h1m2 0h7M5 27.5h4m4 0h3m2 0h2m2 0h4m1 0h2m2 0h1m4 0h2m1 0h2M4 28.5h1m4 0h2m2 0h1m2 0h1m5 0h2m3 0h1m1 0h1m2 0h2m1 0h2m2 0h1m2 0h3M4 29.5h1m1 0h2m3 0h2m3 0h3m4 0h4m2 0h1m1 0h2m2 0h1m1 0h2m5 0h1M6 30.5h5m3 0h1m1 0h1m1 0h3m3 0h1m3 0h2m3 0h5m1 0h1m1 0h1m1 0h2M5 31.5h2m2 0h1m4 0h1m1 0h2m2 0h5m2 0h3m2 0h1m3 0h2m1 0h3m2 0h1M4 32.5h1m1 0h5m6 0h1m3 0h11m1 0h2m1 0h1m2 0h3M5 33.5h3m4 0h3m1 0h1m2 0h2m1 0h1m1 0h2m1 0h1m3 0h1m2 0h1m1 0h2m1 0h1m1 0h1M4 34.5h1m3 0h4m2 0h2m1 0h1m1 0h2m1 0h1m3 0h1m2 0h4m1 0h1m1 0h1m1 0h1m2 0h1M7 35.5h2m3 0h2m4 0h2m2 0h1m1 0h1m1 0h1m2 0h2m1 0h3m2 0h2m1 0h3M5 36.5h1m1 0h1m1 0h5m1 0h2m2 0h2m1 0h4m2 0h3m1 0h3m1 0h9M12 37.5h4m1 0h5m1 0h4m1 0h1m3 0h1m3 0h1m3 0h2m1 0h2M4 38.5h7m1 0h2m1 0h1m3 0h2m2 0h4m1 0h1m3 0h2m1 0h2m1 0h1m1 0h1m1 0h1M4 39.5h1m5 0h1m2 0h1m2 0h5m2 0h10m1 0h1m1 0h1m3 0h1m3 0h1M4 40.5h1m1 0h3m1 0h1m2 0h2m1 0h6m1 0h4m1 0h1m2 0h1m1 0h1m2 0h5m1 0h1M4 41.5h1m1 0h3m1 0h1m1 0h2m1 0h5m3 0h1m1 0h3m1 0h4m1 0h1m2 0h1m2 0h2m1 0h2M4 42.5h1m1 0h3m1 0h1m1 0h1m6 0h1m1 0h1m1 0h3m3 0h1m5 0h1m5 0h2m1 0h1M4 43.5h1m5 0h1m2 0h3m3 0h4m3 0h1m3 0h1m1 0h1m1 0h1m1 0h1m1 0h1m1 0h2m1 0h1M4 44.5h7m4 0h3m2 0h1m1 0h6m1 0h1m4 0h3m2 0h1m3 0h1"/></svg>

    <rect x="203.75510204081633" y="203.75510204081633" width="104.48979591836734" height="104.48979591836734" fill="black" stroke="white" stroke-width="10.948979591836734"/>
    <svg x="203.75510204081633" y="203.75510204081633" width="104.48979591836734" height="104.48979591836734" viewBox="0 0 116 116" fill="none" xmlns="http://www.w3.org/2000/svg">
      <path d="M63.9114 35.4964L52.1135 35.4964L30.6671 76.3932L39.9023 81.2706L58.0329 46.7391L76.1169 81.2829L85.333 76.3847L63.9114 35.4964Z" fill="white"/>
    </svg>
  </svg>